<svg xmlns="http://www.w3.org/2000/svg" width="170.843" height="63.239" viewBox="0 0 170.843 63.239"><defs><style>.a{fill:#f15c21;}.b{fill:#fff;}.c{fill:#42515a;}</style></defs><g transform="translate(-1145.476 -765.705)"><rect class="a" width="52.459" height="52.459" transform="translate(1150.865 771.095)"/><g transform="translate(1215.214 786.78)"><path class="b" d="M1239.62,818.253a.76.76,0,0,1-.86-.86V795.031a.76.76,0,0,1,.86-.86h6.811a15.957,15.957,0,0,1,3.7.413,11.718,11.718,0,0,1,3.321,1.359,10.129,10.129,0,0,1,2.717,2.356,10.7,10.7,0,0,1,1.806,3.561,16.21,16.21,0,0,1,.67,4.834,14.612,14.612,0,0,1-.946,5.522,8.486,8.486,0,0,1-2.581,3.6,10.911,10.911,0,0,1-3.561,1.858,14.4,14.4,0,0,1-4.2.585Zm7.706-4.954a4.614,4.614,0,0,0,3.75-1.771,7.544,7.544,0,0,0,1.445-4.9,9.469,9.469,0,0,0-1.394-5.522q-1.393-1.978-4.765-1.978h-1.341V813.3Z" transform="translate(-1238.76 -793.965)"/><path class="b" d="M1287.2,795.031a.76.76,0,0,1,.86-.86h4.542a.76.76,0,0,1,.86.86v13.211q0,5.367-2.667,7.792a9.95,9.95,0,0,1-6.966,2.425,12.43,12.43,0,0,1-3.733-.533,9.065,9.065,0,0,1-3.1-1.686,7.47,7.47,0,0,1-2.167-3.182,13.5,13.5,0,0,1-.775-4.816l.034-13.211q0-.86.9-.86h4.541a.76.76,0,0,1,.86.86v13.693q0,4.129,3.44,4.128,3.371,0,3.372-4.128Z" transform="translate(-1247.67 -793.965)"/><path class="b" d="M1328.691,812.748q.929.963.309,1.686a12.411,12.411,0,0,1-1.634,1.669,10.371,10.371,0,0,1-2.821,1.531,11.057,11.057,0,0,1-4.111.756,11.5,11.5,0,0,1-8.584-3.233q-3.183-3.234-3.183-8.979,0-5.849,2.907-9.066t8.171-3.216a12.142,12.142,0,0,1,4.145.653,8.16,8.16,0,0,1,2.8,1.583,8.734,8.734,0,0,1,1.686,2.167,8.93,8.93,0,0,1,.911,2.168,11.6,11.6,0,0,1,.292,1.823q.035.723-.791.826l-3.956.585q-.929.138-1.1-.688-.687-3.578-3.922-3.578a3.969,3.969,0,0,0-3.406,1.72,8.548,8.548,0,0,0-1.239,5.023,6.977,6.977,0,0,0,1.617,4.936,5.2,5.2,0,0,0,3.956,1.737,6.482,6.482,0,0,0,4.576-2.2.794.794,0,0,1,1.342-.034Z" transform="translate(-1256.405 -793.895)"/><path class="b" d="M1358.061,812.852h-7.535l-1.411,4.37a1.648,1.648,0,0,0-.086.258c-.034.125-.063.224-.086.292a1.15,1.15,0,0,1-.12.241.436.436,0,0,1-.241.189,1.141,1.141,0,0,1-.361.052h-4.989a.6.6,0,0,1-.6-.344.841.841,0,0,1,.017-.722l7.912-20.677a4.818,4.818,0,0,1,1.1-1.823,2.527,2.527,0,0,1,1.72-.516h2.167a2.657,2.657,0,0,1,1.772.516,4.408,4.408,0,0,1,1.084,1.823l7.569,20.677a.8.8,0,0,1,.017.7.592.592,0,0,1-.6.361H1360.4a1.148,1.148,0,0,1-.362-.052.439.439,0,0,1-.241-.189c-.057-.092-.1-.166-.138-.224a1.193,1.193,0,0,1-.1-.309,1.554,1.554,0,0,0-.087-.292Zm-6.021-4.61h4.542l-2.271-7.053Z" transform="translate(-1264.959 -793.965)"/></g><rect class="c" width="44.716" height="44.716" transform="translate(1177.095 765.705) rotate(45)"/><g transform="translate(1171.041 780.723)"><path class="b" d="M1180.368,813.112a.615.615,0,0,1-.7-.7V794.335a.615.615,0,0,1,.7-.7h11.49a.615.615,0,0,1,.7.7v2.615a.615.615,0,0,1-.7.7h-7.122v3.866h5.063a.615.615,0,0,1,.7.7v2.531a.614.614,0,0,1-.7.7h-5.063v3.672h7.122a.615.615,0,0,1,.7.7v2.615a.615.615,0,0,1-.7.7Zm4.173-21.448a.444.444,0,0,1-.4-.2.5.5,0,0,1-.013-.472l1.725-4.507q.251-.7.807-.7h4.284a.506.506,0,0,1,.432.167c.083.111.069.259-.042.445l-2.893,4.423c-.019.037-.061.107-.125.209a1.343,1.343,0,0,1-.14.2q-.041.042-.139.152a.625.625,0,0,1-.181.153,1.6,1.6,0,0,1-.209.084.922.922,0,0,1-.291.042Z" transform="translate(-1179.673 -785.794)"/></g></g></svg>