<svg xmlns="http://www.w3.org/2000/svg" width="1640.771" height="519.097" viewBox="0 0 1640.771 519.097"><defs><style>.a{opacity:0.3;}.b,.c,.d{fill:none;stroke:#fff;stroke-width:2px;}.b{stroke-miterlimit:10;}.c,.d{stroke-linejoin:round;}.d{stroke-linecap:round;}</style></defs><g class="a" transform="translate(-3008.189 -220.847)"><g transform="translate(3008.189 220.847)"><line class="b" x2="198.63" transform="translate(925.809 517.66)"/><line class="b" x2="74.946" transform="translate(875.854 439.204)"/><path class="c" d="M3705.957,330.968H3763.3a30.713,30.713,0,0,1,37.006-30.06,53.18,53.18,0,0,1,105.028-.479c1.12-.1,2.246-.172,3.39-.172a39.306,39.306,0,0,1,39.305,39.307,38.9,38.9,0,0,1-.614,6.758" transform="translate(-2572.176 -198.958)"/><g transform="translate(492.542 236.69)"><path class="b" d="M3495.666,366.514H3335.1a23.781,23.781,0,0,0-23.78,23.782v78.64a23.779,23.779,0,0,0,23.78,23.78h4.061v25.1l22.113-25.1h134.4a23.779,23.779,0,0,0,23.781-23.78V390.3A23.781,23.781,0,0,0,3495.666,366.514Z" transform="translate(-3311.316 -366.514)"/></g><g transform="translate(778.221 147.961)"><circle class="b" cx="38.139" cy="38.139" r="38.139" transform="translate(139.142 30.654)"/><rect class="b" width="69.331" height="88.117" transform="translate(20.877 24.735)"/><path class="b" d="M3542.65,424.76l99.177,24.735V311.907l-99.177,24.735Z" transform="translate(-3452.442 -311.907)"/><rect class="b" width="20.877" height="63.735" transform="translate(0 36.926)"/><rect class="b" width="28.156" height="116.759" transform="translate(35.095 112.852)"/><rect class="b" width="12.651" height="33.757" transform="translate(63.25 143.527)"/><line class="b" x2="44.832" transform="translate(233.971 68.793)"/><line class="b" y1="12.367" x2="35.556" transform="translate(233.971 28.599)"/><line class="b" x2="35.556" y2="12.367" transform="translate(233.971 96.62)"/></g><g transform="translate(1175.062 216.754)"><path class="b" d="M3782.439,443.572a14.124,14.124,0,1,1-14.124-14.123A14.125,14.125,0,0,1,3782.439,443.572Z" transform="translate(-3717.097 -307.252)"/><path class="b" d="M3833.8,405.464a51.221,51.221,0,0,0-53.66-51.162c-26.383,1.225-47.952,23.172-48.753,49.57a51.163,51.163,0,0,0,28.476,47.446v27.14a12.107,12.107,0,0,0,12.107,12.107h21.223a12.107,12.107,0,0,0,12.106-12.107v-27.14A51.169,51.169,0,0,0,3833.8,405.464Z" transform="translate(-3731.362 -354.245)"/><path class="c" d="M3770.646,406.686,3750.461,386.5h40.37Z" transform="translate(-3719.427 -334.089)"/><line class="c" y2="35.177" transform="translate(51.219 72.597)"/><line class="d" x2="50.401" transform="translate(25.906 108.993)"/><line class="d" x2="50.401" transform="translate(25.906 116.13)"/><line class="d" x2="50.401" transform="translate(25.906 123.266)"/></g><g transform="translate(1355.503)"><rect class="c" width="87.297" height="288.509" transform="translate(14.268 108.83)"/><rect class="c" width="171.997" height="190.383" transform="translate(101.566 206.956)"/><rect class="c" width="7.731" height="34.492" transform="translate(32.642 134.403)"/><rect class="c" width="7.731" height="34.492" transform="translate(54.051 134.403)"/><rect class="c" width="7.731" height="34.492" transform="translate(75.461 134.403)"/><rect class="c" width="7.731" height="34.492" transform="translate(32.642 184.358)"/><rect class="c" width="7.731" height="34.492" transform="translate(54.051 184.358)"/><rect class="c" width="7.731" height="34.492" transform="translate(75.461 184.358)"/><rect class="c" width="7.731" height="34.493" transform="translate(32.642 234.313)"/><rect class="c" width="7.731" height="34.493" transform="translate(54.051 234.313)"/><rect class="c" width="7.731" height="34.493" transform="translate(75.461 234.313)"/><rect class="c" width="7.731" height="34.493" transform="translate(32.642 284.268)"/><rect class="c" width="7.731" height="34.493" transform="translate(54.051 284.268)"/><rect class="c" width="7.731" height="34.493" transform="translate(75.461 284.268)"/><rect class="c" width="7.731" height="34.493" transform="translate(32.642 334.224)"/><rect class="c" width="7.731" height="34.493" transform="translate(54.051 334.224)"/><rect class="c" width="7.731" height="34.493" transform="translate(75.461 334.224)"/><rect class="c" width="26.464" height="26.464" transform="translate(127.945 227.177)"/><rect class="c" width="26.464" height="26.464" transform="translate(174.332 227.177)"/><rect class="c" width="26.464" height="26.464" transform="translate(220.72 227.177)"/><rect class="c" width="26.464" height="26.464" transform="translate(127.945 269.996)"/><rect class="c" width="26.464" height="26.464" transform="translate(174.332 269.996)"/><rect class="c" width="26.464" height="26.464" transform="translate(220.72 269.996)"/><rect class="c" width="26.464" height="26.464" transform="translate(127.945 312.814)"/><rect class="c" width="26.464" height="26.464" transform="translate(174.332 312.814)"/><rect class="c" width="26.464" height="26.464" transform="translate(220.72 312.814)"/><rect class="c" width="26.464" height="26.464" transform="translate(127.945 355.633)"/><rect class="c" width="26.464" height="26.464" transform="translate(174.332 355.633)"/><rect class="c" width="26.464" height="26.464" transform="translate(220.72 355.633)"/><rect class="c" width="72.851" height="38.061" transform="translate(127.945 168.895)"/><rect class="c" width="16.288" height="57.686" transform="translate(20.22 51.144)"/><line class="c" y2="51.144" transform="translate(25.573)"/><line class="c" y2="74.932" transform="translate(54.051 33.898)"/><line class="c" y2="34.492" transform="translate(141.177 134.403)"/><line class="c" y2="95.152" transform="translate(215.877 111.804)"/><line class="c" y2="55.307" transform="translate(233.951 151.649)"/><rect class="c" width="284.268" height="16.573" transform="translate(0 397.339)"/></g><path class="c" d="M3546.24,355.026h-86.534a46.348,46.348,0,0,0-55.844-45.361,80.249,80.249,0,0,0-158.488-.725c-1.689-.145-3.388-.258-5.113-.258a59.1,59.1,0,0,0-58.388,69.512H3008.189" transform="translate(-3008.189 -207.811)"/><circle class="c" cx="49.235" cy="49.235" r="49.235" transform="translate(306.337 144.639)"/><g transform="translate(258.865 97.166)"><g transform="translate(96.707)"><line class="c" y1="38.494"/><line class="c" y1="38.494" transform="translate(0 154.919)"/></g><g transform="translate(48.353 12.956)"><line class="c" x1="19.247" y1="33.337"/><line class="c" x1="19.247" y1="33.337" transform="translate(77.46 134.164)"/></g><g transform="translate(12.957 48.353)"><line class="c" x1="33.337" y1="19.247"/><line class="c" x1="33.337" y1="19.247" transform="translate(134.164 77.46)"/></g><g transform="translate(0 96.707)"><line class="c" x1="38.494"/><line class="c" x1="38.494" transform="translate(154.92)"/></g><g transform="translate(12.957 48.353)"><line class="c" x1="33.337" y2="19.247" transform="translate(0 77.46)"/><line class="c" x1="33.337" y2="19.247" transform="translate(134.164)"/></g><g transform="translate(48.353 12.956)"><line class="c" x1="19.247" y2="33.337" transform="translate(0 134.164)"/><line class="c" x1="19.247" y2="33.337" transform="translate(77.46)"/></g></g><rect class="c" width="22.301" height="83.529" transform="translate(638.528 434.568)"/><rect class="c" width="21.409" height="61.823" transform="translate(638.528 507.244) rotate(180)"/><rect class="c" width="22.301" height="83.529" transform="translate(739.331 518.097) rotate(180)"/><rect class="c" width="21.409" height="61.823" transform="translate(739.331 445.421)"/><rect class="c" width="56.2" height="20.356" transform="translate(660.829 466.154)"/><path class="c" d="M3751.76,486.01h-10.75a58.15,58.15,0,0,0-7.981-19.211l7.617-7.619a5.507,5.507,0,0,0,0-7.79l-9.8-9.8a5.508,5.508,0,0,0-7.79,0l-7.619,7.617a58.2,58.2,0,0,0-19.211-7.983V430.473a5.509,5.509,0,0,0-5.51-5.508h-13.863a5.509,5.509,0,0,0-5.509,5.508v10.75a58.158,58.158,0,0,0-19.21,7.981l-7.619-7.617a5.507,5.507,0,0,0-7.79,0l-9.8,9.8a5.507,5.507,0,0,0,0,7.79l7.617,7.619a58.161,58.161,0,0,0-7.981,19.211h-10.75a5.509,5.509,0,0,0-5.508,5.51v13.862a5.509,5.509,0,0,0,5.508,5.51h10.749a58.218,58.218,0,0,0,7.983,19.212l-7.617,7.617a5.509,5.509,0,0,0,0,7.791l9.8,9.8a5.508,5.508,0,0,0,7.79,0l7.619-7.617a58.2,58.2,0,0,0,19.21,7.983v10.748a5.509,5.509,0,0,0,5.509,5.508h13.863a5.509,5.509,0,0,0,5.51-5.508V555.679a58.2,58.2,0,0,0,19.211-7.983l7.619,7.617a5.508,5.508,0,0,0,7.79,0l9.8-9.8a5.509,5.509,0,0,0,0-7.791l-7.617-7.617a58.207,58.207,0,0,0,7.982-19.212h10.749a5.509,5.509,0,0,0,5.509-5.51V491.52A5.509,5.509,0,0,0,3751.76,486.01Zm-67.978,53.252a40.811,40.811,0,1,1,40.812-40.81A40.811,40.811,0,0,1,3683.782,539.262Z" transform="translate(-2631.949 -93.3)"/><line class="c" x2="280.339" transform="translate(547.054 79.988)"/><line class="c" x2="97.6" transform="translate(847.106 51.144)"/></g><line class="b" x2="247.777" transform="translate(3163.868 558.404)"/></g></svg>